<?xml version="1.0" standalone="no"?>
<!DOCTYPE svg PUBLIC "-//W3C//DTD SVG 20010904//EN"
 "http://www.w3.org/TR/2001/REC-SVG-20010904/DTD/svg10.dtd">
<svg version="1.0" xmlns="http://www.w3.org/2000/svg"
 width="204.000000pt" height="198.000000pt" viewBox="0 0 204.000000 198.000000"
 preserveAspectRatio="xMidYMid meet">
<metadata>
Created by potrace 1.16, written by Peter Selinger 2001-2019
</metadata>
<g transform="translate(0.000000,198.000000) scale(0.100000,-0.100000)"
fill="#000000" stroke="none">
<path d="M885 1970 l-200 -5 -55 -36 c-75 -50 -114 -93 -147 -164 -28 -60 -28
-62 -31 -292 l-3 -233 -195 0 -196 0 -29 -29 c-36 -36 -36 -55 -3 -167 23 -80
69 -243 94 -334 43 -155 122 -431 136 -478 8 -23 14 -49 14 -58 0 -8 13 -43
29 -78 23 -51 35 -65 61 -75 23 -8 216 -11 663 -11 l629 0 38 38 c37 37 67
115 116 297 9 33 19 74 24 90 5 17 18 66 30 109 11 43 29 104 39 135 10 31 26
85 36 121 9 36 21 76 25 90 4 14 15 52 25 85 9 33 24 80 31 104 15 48 18 90 8
115 -13 35 -47 41 -244 46 l-195 5 -2 175 c-3 267 -6 298 -37 358 -35 70 -99
132 -167 164 -64 31 -162 36 -494 28z m421 -190 c45 -29 81 -73 94 -118 7 -23
10 -111 8 -227 l-3 -190 -379 -3 c-209 -1 -383 1 -388 6 -4 4 -8 98 -9 209 0
184 1 204 20 241 24 47 77 91 124 103 17 5 137 6 266 4 214 -4 236 -6 267 -25z
m-913 -850 l70 0 -83 -67 c-45 -38 -86 -69 -90 -71 -9 -4 -40 129 -33 141 3 5
19 6 35 3 17 -3 62 -6 101 -6z m511 2 l40 -7 -28 -18 c-15 -10 -62 -49 -104
-86 -81 -70 -278 -237 -365 -308 -56 -46 -77 -53 -77 -25 0 9 -7 37 -16 61
-14 42 -14 45 8 68 27 29 255 219 337 280 50 38 62 42 111 42 30 0 73 -3 94
-7z m500 0 c2 -4 -77 -78 -177 -164 -100 -86 -240 -207 -312 -268 -71 -62
-175 -150 -230 -195 -55 -46 -109 -92 -119 -104 -23 -26 -87 -29 -110 -5 -9 8
-16 30 -16 48 0 38 20 59 195 201 66 54 174 144 239 199 377 320 341 295 443
296 45 0 84 -3 87 -8z m382 -3 c3 -6 -1 -37 -11 -69 -17 -58 -21 -61 -184
-199 -91 -76 -244 -206 -339 -288 -95 -81 -183 -156 -195 -165 -17 -14 -47
-19 -129 -22 -60 -3 -108 -1 -108 4 0 5 19 23 42 42 23 18 162 134 308 258
519 438 534 450 576 450 18 0 36 -5 40 -11z m-146 -531 c-58 -150 -70 -183
-70 -195 0 -6 -17 -14 -37 -17 -45 -8 -233 -4 -233 4 0 4 37 36 83 73 45 36
126 103 181 147 54 45 100 79 103 76 3 -2 -9 -42 -27 -88z"/>
</g>
</svg>
