<?xml version="1.0" standalone="no"?>
<!DOCTYPE svg PUBLIC "-//W3C//DTD SVG 20010904//EN"
 "http://www.w3.org/TR/2001/REC-SVG-20010904/DTD/svg10.dtd">
<svg version="1.0" xmlns="http://www.w3.org/2000/svg"
 width="242.000000pt" height="229.000000pt" viewBox="0 0 242.000000 229.000000"
 preserveAspectRatio="xMidYMid meet">
<metadata>
Created by potrace 1.16, written by Peter Selinger 2001-2019
</metadata>
<g transform="translate(0.000000,229.000000) scale(0.100000,-0.100000)"
fill="#000000" stroke="none">
<path d="M37 2252 c-36 -37 -35 -75 2 -113 l29 -29 145 0 144 0 22 -102 c13
-57 33 -146 46 -198 13 -52 37 -151 54 -220 16 -69 53 -219 81 -335 28 -115
56 -232 62 -260 27 -119 44 -159 78 -183 l33 -22 627 0 c621 0 628 0 654 21
38 30 58 74 141 314 92 267 163 465 180 502 8 17 15 38 15 46 0 9 4 18 9 22 5
3 12 19 16 36 4 17 13 42 21 57 26 49 8 131 -31 146 -9 3 -408 6 -888 6 -480
1 -877 4 -883 8 -12 7 -34 83 -59 199 -29 132 -31 133 -275 133 l-196 0 -27
-28z m2163 -490 c0 -4 -6 -16 -14 -27 -7 -11 -19 -38 -26 -60 -7 -22 -28 -82
-48 -133 l-35 -92 -690 2 -691 3 -14 60 c-7 33 -22 97 -33 142 -10 45 -19 89
-19 98 0 13 86 15 785 15 432 0 785 -3 785 -8z m-180 -501 c0 -6 -4 -12 -9
-16 -5 -3 -13 -20 -16 -38 -4 -17 -13 -45 -20 -62 -7 -16 -25 -63 -40 -102
l-27 -73 -547 0 -548 0 -13 58 c-7 31 -18 80 -25 107 -7 28 -16 69 -20 93 l-7
42 636 0 c391 0 636 -4 636 -9z"/>
<path d="M805 555 c-33 -32 -33 -83 0 -119 23 -25 28 -26 147 -27 161 -2 183
-4 181 -15 -1 -5 -9 -27 -17 -49 -34 -90 -12 -184 61 -259 58 -59 107 -80 188
-81 60 0 78 4 125 31 61 35 113 101 131 167 11 40 7 86 -17 181 l-7 29 134 -5
c142 -6 177 2 199 41 18 34 12 80 -15 106 l-24 25 -531 0 -531 0 -24 -25z"/>
</g>
</svg>
