<?xml version="1.0" standalone="no"?>
<!DOCTYPE svg PUBLIC "-//W3C//DTD SVG 20010904//EN"
 "http://www.w3.org/TR/2001/REC-SVG-20010904/DTD/svg10.dtd">
<svg version="1.0" xmlns="http://www.w3.org/2000/svg"
 width="207.000000pt" height="225.000000pt" viewBox="0 0 207.000000 225.000000"
 preserveAspectRatio="xMidYMid meet">

<g transform="translate(0.000000,225.000000) scale(0.100000,-0.100000)"
fill="#000000" stroke="none">
<path d="M765 2231 c-76 -34 -76 -155 1 -206 24 -16 26 -21 21 -69 -3 -28 -15
-148 -26 -266 -11 -118 -25 -261 -31 -317 -32 -310 -81 -821 -86 -913 l-7
-106 167 -165 c92 -90 178 -170 192 -177 13 -7 35 -10 50 -6 34 9 373 330 380
361 4 13 1 81 -5 151 -7 70 -19 201 -27 292 -13 153 -33 338 -100 953 l-26
238 42 37 c43 39 59 85 46 136 -13 51 -31 54 -311 60 -144 4 -269 2 -280 -3z
m330 -313 c-8 -5 -45 -36 -82 -68 -38 -33 -71 -60 -74 -60 -4 0 -4 33 -2 73 6
82 16 97 113 165 l55 38 3 -70 c2 -55 0 -72 -13 -78z m48 -271 l5 -77 -111
-98 c-62 -53 -119 -102 -127 -109 -14 -11 -15 -1 -5 90 l10 102 109 87 c60 49
110 87 111 86 1 -2 5 -38 8 -81z m40 -374 c6 -76 6 -79 -21 -102 -15 -13 -89
-77 -164 -142 -75 -65 -138 -119 -140 -119 -2 0 0 37 4 83 3 45 7 89 7 98 1
21 277 259 300 259 5 0 11 -35 14 -77z m23 -335 c0 -13 2 -50 4 -83 l3 -61
-54 -50 c-30 -27 -83 -74 -119 -104 -36 -30 -100 -86 -143 -124 -43 -38 -80
-67 -82 -64 -3 3 0 49 7 102 l12 98 75 66 c41 37 79 72 85 77 34 32 198 165
204 165 4 0 7 -10 8 -22z m38 -405 c17 -106 16 -108 -104 -223 l-110 -106 -52
54 -53 54 65 60 c71 66 231 197 241 198 4 0 9 -17 13 -37z"/>
<path d="M64 2140 c-56 -22 -54 2 -54 -716 l0 -661 63 -48 c34 -27 89 -72 122
-101 l61 -52 44 39 c25 22 80 65 123 96 l77 57 1 641 c1 352 2 656 1 674 0 48
-38 81 -84 74 -73 -11 -68 35 -68 -661 l0 -625 -42 -39 c-23 -21 -45 -37 -49
-36 -3 2 -25 20 -48 40 l-41 38 0 620 c0 607 0 620 -20 640 -11 11 -24 20 -29
20 -5 0 -15 2 -23 4 -7 3 -23 1 -34 -4z"/>
<path d="M1609 2136 c-49 -24 -49 -18 -49 -712 l0 -651 111 -94 c61 -52 117
-98 126 -102 9 -6 24 -1 43 15 15 13 71 58 124 101 l96 78 -1 647 c-1 356 -4
658 -8 671 -10 38 -53 64 -90 56 -68 -15 -66 9 -69 -675 l-2 -615 -38 -32
c-20 -18 -42 -32 -47 -33 -6 0 -28 17 -48 38 l-37 38 0 620 c0 580 -1 622 -18
637 -24 22 -65 28 -93 13z"/>
<path d="M10 471 l0 -89 118 -104 c64 -57 123 -107 130 -112 8 -5 43 20 100
71 150 135 142 122 142 224 0 49 -2 89 -5 89 -8 0 -154 -118 -204 -164 -24
-23 -41 -36 -37 -29 3 6 -42 50 -114 107 -67 53 -123 96 -125 96 -3 0 -5 -40
-5 -89z"/>
<path d="M1560 467 l0 -92 89 -82 c48 -45 102 -94 119 -108 l32 -27 29 24 c15
13 74 63 130 111 l101 88 0 91 0 90 -27 -17 c-16 -10 -66 -48 -112 -84 -46
-36 -92 -72 -102 -80 -17 -12 -26 -7 -91 51 -81 72 -153 128 -162 128 -3 0 -6
-42 -6 -93z"/>
</g>
</svg>
