<?xml version="1.0" standalone="no"?>
<!DOCTYPE svg PUBLIC "-//W3C//DTD SVG 20010904//EN"
 "http://www.w3.org/TR/2001/REC-SVG-20010904/DTD/svg10.dtd">
<svg version="1.0" xmlns="http://www.w3.org/2000/svg"
 width="168.000000pt" height="219.000000pt" viewBox="0 0 168.000000 219.000000"
 preserveAspectRatio="xMidYMid meet">

<g transform="translate(0.000000,219.000000) scale(0.100000,-0.100000)"
fill="#000000" stroke="none">
<path d="M744 2124 c-49 -31 -111 -73 -139 -94 -27 -20 -86 -60 -130 -87 -136
-85 -269 -174 -292 -196 -49 -45 -15 -137 51 -137 33 0 62 15 156 79 40 28 80
51 88 51 8 0 30 -11 48 -25 18 -14 36 -25 40 -25 4 0 15 -7 24 -15 14 -13 16
-23 9 -58 -14 -64 -84 -546 -144 -982 -3 -16 -12 -77 -20 -135 l-16 -105 88
-84 c236 -224 311 -290 333 -296 17 -4 34 1 56 17 30 22 203 181 331 303 l63
60 -25 160 c-14 88 -32 210 -41 270 -8 61 -40 273 -71 473 -30 199 -54 364
-52 365 2 2 29 21 60 44 l56 41 99 -64 c54 -36 109 -67 122 -71 38 -9 75 9 95
47 31 58 16 77 -137 177 -74 48 -214 140 -311 203 -151 98 -217 136 -246 139
-3 1 -46 -24 -95 -55z m212 -196 c110 -73 111 -66 -24 -155 l-83 -55 -52 36
c-29 20 -73 51 -100 69 l-47 34 87 66 c49 36 97 66 107 66 11 1 61 -27 112
-61z m-152 -393 c40 -30 77 -32 101 -5 10 11 22 20 27 20 15 0 8 -68 -9 -85
-22 -22 -199 -155 -207 -155 -3 0 -2 10 3 23 5 12 14 68 22 125 7 56 17 102
22 102 4 0 23 -11 41 -25z m189 -267 c3 -13 8 -43 12 -68 6 -42 4 -47 -27 -76
-18 -17 -73 -62 -123 -99 -49 -38 -108 -83 -130 -100 -59 -47 -68 -51 -62 -29
3 11 8 54 12 96 l7 78 106 82 c112 88 183 138 193 138 4 0 9 -10 12 -22z m59
-428 l3 -45 -195 -157 c-107 -87 -207 -167 -222 -179 l-28 -20 0 28 c0 67 22
159 43 182 28 30 187 158 297 239 l85 63 7 -33 c4 -18 8 -53 10 -78z m43 -330
l12 -70 -86 -72 c-47 -39 -105 -89 -127 -111 l-41 -38 -52 53 c-28 29 -51 55
-50 58 1 13 321 262 328 255 2 -3 9 -36 16 -75z"/>
<path d="M170 1403 c-100 -37 -56 -182 50 -166 35 5 60 39 60 80 0 47 -14 69
-51 82 -35 12 -37 12 -59 4z"/>
<path d="M1464 1400 c-73 -30 -70 -129 5 -159 51 -22 111 23 111 83 0 52 -68
96 -116 76z"/>
<path d="M22 1024 c-28 -19 -28 -55 -2 -79 18 -17 38 -19 161 -19 154 1 172 7
172 60 0 47 -23 54 -173 54 -106 0 -140 -3 -158 -16z"/>
<path d="M1366 1024 c-21 -20 -20 -68 1 -85 11 -10 54 -15 137 -17 112 -4 123
-2 149 18 31 25 35 60 9 83 -27 24 -273 25 -296 1z"/>
<path d="M137 713 c-38 -44 -16 -113 37 -113 51 0 73 68 36 108 -25 27 -51 28
-73 5z"/>
<path d="M1486 709 c-31 -25 -34 -61 -6 -89 41 -41 100 -13 100 48 0 21 -7 36
-22 46 -29 21 -40 20 -72 -5z"/>
</g>
</svg>
