<?xml version="1.0" standalone="no"?>
<!DOCTYPE svg PUBLIC "-//W3C//DTD SVG 20010904//EN"
 "http://www.w3.org/TR/2001/REC-SVG-20010904/DTD/svg10.dtd">
<svg version="1.0" xmlns="http://www.w3.org/2000/svg"
 width="199.000000pt" height="237.000000pt" viewBox="0 0 199.000000 237.000000"
 preserveAspectRatio="xMidYMid meet">

<g transform="translate(0.000000,237.000000) scale(0.100000,-0.100000)"
fill="#000000" stroke="none">
<path d="M1452 2337 c-31 -33 -30 -86 4 -118 25 -23 30 -24 182 -24 l157 0 3
-61 c2 -50 7 -66 28 -85 35 -32 91 -30 121 6 21 24 23 36 23 133 0 98 -2 110
-24 137 l-24 30 -224 3 -224 3 -22 -24z"/>
<path d="M947 2284 c-15 -8 -72 -46 -125 -83 -53 -37 -146 -101 -207 -142 -60
-42 -135 -93 -165 -114 -30 -21 -139 -96 -241 -167 -192 -131 -219 -159 -204
-208 10 -32 46 -60 77 -60 18 0 82 36 195 113 196 131 539 368 634 438 37 27
72 49 78 49 6 0 100 -62 209 -138 108 -77 235 -165 282 -196 47 -31 154 -104
239 -161 172 -117 202 -127 240 -79 32 40 27 84 -11 121 -18 17 -107 81 -198
142 -91 61 -221 151 -290 199 -287 201 -427 292 -455 297 -18 3 -42 -1 -58
-11z"/>
<path d="M899 1797 c-94 -27 -178 -96 -222 -182 -24 -48 -39 -142 -32 -195 8
-58 53 -154 89 -192 24 -25 25 -30 15 -80 -5 -29 -21 -116 -35 -193 -14 -77
-31 -174 -38 -215 -26 -143 -54 -305 -61 -353 -7 -52 -6 -54 100 -147 22 -19
83 -73 135 -120 155 -139 135 -127 173 -100 17 13 103 89 189 169 105 97 158
153 158 166 0 12 -22 147 -49 300 -27 154 -59 339 -71 411 l-22 131 45 65 c52
76 72 147 64 229 -15 170 -152 303 -323 314 -40 3 -88 0 -115 -8z m189 -190
c47 -31 86 -116 77 -164 -16 -93 -105 -161 -191 -148 -114 17 -184 136 -140
238 40 95 167 132 254 74z m-143 -487 c-3 -5 -13 -10 -21 -10 -8 0 -14 5 -14
10 0 6 9 10 21 10 11 0 17 -4 14 -10z m154 -100 c20 -93 24 -88 -131 -213 -79
-63 -144 -114 -145 -113 -1 1 8 47 20 103 l22 101 105 86 c58 47 108 86 112
86 3 0 11 -23 17 -50z m55 -336 c14 -108 32 -82 -184 -262 l-96 -79 -42 37
c-62 53 -55 68 86 182 150 121 212 168 221 168 5 0 11 -21 15 -46z m19 -322
c-12 -9 -53 -43 -92 -76 -40 -32 -74 -56 -77 -54 -3 3 36 40 87 82 50 42 94
74 98 71 3 -4 -4 -14 -16 -23z"/>
<path d="M162 1314 c-19 -14 -20 -73 -1 -85 22 -14 213 -11 227 3 16 16 15 63
-1 76 -18 15 -206 20 -225 6z"/>
<path d="M1602 1314 c-26 -18 -29 -56 -6 -78 12 -12 38 -16 114 -16 95 0 100
1 116 25 15 23 15 27 1 49 -18 27 -54 36 -141 36 -40 0 -70 -6 -84 -16z"/>
<path d="M1635 982 c-40 -5 -55 -19 -55 -51 0 -45 15 -51 132 -51 96 0 108 2
118 19 15 29 12 57 -7 72 -15 13 -117 19 -188 11z"/>
<path d="M149 953 c-7 -19 -7 -35 0 -50 10 -22 16 -23 119 -23 116 0 132 6
132 50 0 44 -16 50 -132 50 l-108 0 -11 -27z"/>
</g>
</svg>
