<?xml version="1.0" standalone="no"?>
<!DOCTYPE svg PUBLIC "-//W3C//DTD SVG 20010904//EN"
 "http://www.w3.org/TR/2001/REC-SVG-20010904/DTD/svg10.dtd">
<svg version="1.0" xmlns="http://www.w3.org/2000/svg"
 width="197.000000pt" height="205.000000pt" viewBox="0 0 197.000000 205.000000"
 preserveAspectRatio="xMidYMid meet">

<g transform="translate(0.000000,205.000000) scale(0.100000,-0.100000)"
fill="#000000" stroke="none">
<path d="M943 2030 c-12 -5 -80 -49 -150 -98 -70 -49 -195 -133 -278 -187 -82
-54 -196 -129 -252 -167 l-103 -69 0 73 c0 84 -14 113 -59 123 -32 7 -68 -7
-88 -34 -9 -11 -12 -68 -13 -187 0 -166 1 -171 23 -192 29 -27 53 -28 92 -2
17 11 33 20 38 20 4 0 7 -254 7 -565 0 -622 -1 -612 60 -634 37 -12 72 -1 94
31 14 20 16 91 16 650 l0 627 33 24 c51 39 285 187 294 187 5 0 17 -15 28 -32
10 -18 40 -62 66 -98 26 -36 68 -100 94 -143 l47 -77 -33 -43 c-19 -23 -77
-94 -130 -157 -52 -63 -101 -125 -108 -138 -16 -29 0 -82 30 -100 39 -25 73
-5 201 118 l123 118 51 -47 c29 -25 52 -50 52 -56 1 -5 -34 -39 -77 -75 -42
-36 -114 -96 -159 -135 l-81 -69 52 -57 c29 -31 57 -56 64 -56 12 2 111 86
266 224 l69 61 35 -20 c30 -18 37 -19 59 -7 31 16 57 63 49 88 -3 9 -13 26
-23 37 -41 46 -124 146 -190 228 l-72 89 21 36 c56 95 205 311 214 311 5 0 52
-27 103 -60 51 -33 94 -60 96 -60 2 0 33 -19 68 -42 l63 -43 -3 -605 c-1 -333
0 -620 3 -638 8 -45 38 -72 78 -72 36 1 58 14 75 47 9 16 12 176 12 587 0 311
3 566 8 566 4 -1 18 -7 32 -15 39 -22 86 -19 104 7 13 18 16 53 16 178 0 135
-3 159 -19 186 -22 35 -58 49 -95 34 -35 -13 -48 -43 -47 -112 0 -49 -3 -59
-15 -54 -16 6 -172 107 -512 330 -207 136 -277 177 -299 175 -4 0 -18 -4 -30
-9z m123 -231 c46 -28 84 -55 84 -60 0 -5 -20 -31 -44 -57 -24 -26 -61 -66
-83 -90 l-39 -43 -60 63 c-74 78 -107 125 -99 139 8 12 136 97 149 98 4 1 46
-22 92 -50z"/>
<path d="M390 125 l0 -125 40 0 40 0 0 50 0 50 40 0 40 0 0 -50 0 -50 40 0 40
0 0 125 0 125 -40 0 -40 0 0 -45 0 -45 -40 0 -40 0 0 45 0 45 -40 0 -40 0 0
-125z"/>
<path d="M763 231 c-102 -64 -70 -215 48 -228 117 -13 181 135 95 216 -35 33
-101 38 -143 12z m91 -57 c35 -34 11 -114 -34 -114 -23 0 -40 28 -40 65 0 58
40 84 74 49z"/>
<path d="M1020 125 l0 -125 35 0 35 0 1 83 1 82 21 -83 21 -83 35 3 36 3 22
90 22 90 0 -92 1 -93 35 0 35 0 0 125 0 125 -54 0 -54 0 -19 -82 -18 -83 -19
83 -19 82 -59 0 -58 0 0 -125z"/>
<path d="M1410 125 l0 -125 80 0 80 0 0 30 c0 28 -2 30 -40 30 -29 0 -40 4
-40 15 0 10 11 15 35 15 32 0 35 2 35 30 0 28 -3 30 -35 30 -28 0 -35 4 -35
20 0 17 7 20 40 20 38 0 40 2 40 30 l0 30 -80 0 -80 0 0 -125z"/>
</g>
</svg>
